# xmcd
#
# Track frame offsets:
# 150
# 15758
# 31934
# 47659
# 63406
# 85788
# 100425
# 113151
# 122331
# 131985
# 149715
# 163459
# 180080
# 194765
# 212654
# 227457
# 236503
# 251282
# 259522
# 270386
# 282351
# 293219
# 298515
# 308848
# 322301
#
# Disc length: 4424 seconds
#
#
# Revision: 0
# Processed by: cddbd v1.4PL0 Copyright (c) Steve Scherf et al.
# Submitted via: FreeRIP 2.00 
#
DISCID=6d114619
DTITLE=Chicago's Gospel Legends - All God's Sons and Doughters
DYEAR=1999
DGENRE=Gospel
TTITLE0=Leaning And Depending - Gladys Beamon Gregory
TTITLE1=Yes I Know Jesus - Delois Barrett Campbell
TTITLE2=The Day Is Past And Gone - J. Robert Bradley
TTITLE3=He Knows How Much We Can Bear - Eugene Smith
TTITLE4=Move On Up A Little Higher - Robert Anderson
TTITLE5=Stand By Me - Irma Gwynn
TTITLE6=Jesus - Gladys Beamon Gregory and Lucy Smith Collier
TTITLE7=When I Was In Trouble - Delois Barrett Campbell
TTITLE8=Stepping Out Again - Gladys Beamon Gregory
TTITLE9=Christ Is All - Irma Gwynn
TTITLE10=Something Within - J. Robert Bradley
TTITLE11=King Jesus Will Roll All Brudens Away - Delois Barrett Campbell
TTITLE12=What A Blessing - Gladys Beamon Gregory
TTITLE13=What A Difference - Robert Anderson
TTITLE14=Didn't It Rain - Irma Gwynn
TTITLE15=There's A Man - Eugene Smith
TTITLE16=Since I Met Jesus - Norsalus McKissick
TTITLE17=By And By - Roberta Martin
TTITLE18=Sometimes I Feel Like A Motherless Child - J. Robert Bradley
TTITLE19=The Lifeboat Is Coming - Bessie Folk
TTITLE20=I Won't Mind - Norsalus McKissick
TTITLE21=After It's All Over - Roberta Martin
TTITLE22=He's All I Need - Eugene Smith
TTITLE23=The Lord Will Make A Way - Myrtle Scott
TTITLE24=Do You Know Him - Roberta Anderson
EXTD=
EXTT0=
EXTT1=
EXTT2=
EXTT3=
EXTT4=
EXTT5=
EXTT6=
EXTT7=
EXTT8=
EXTT9=
EXTT10=
EXTT11=
EXTT12=
EXTT13=
EXTT14=
EXTT15=
EXTT16=
EXTT17=
EXTT18=
EXTT19=
EXTT20=
EXTT21=
EXTT22=
EXTT23=
EXTT24=
PLAYORDER=
